<svg xmlns="http://www.w3.org/2000/svg" viewBox="-320 -120 640 240"><rect x="-320" y="-120" width="640" height="240" fill="white"/><g transform="translate(-200.000000, 0.000000)"><circle cx="0" cy="0" r="25" stroke="black" stroke-width="1" fill="none"/><path d="M 25.000000 0.000000 A 82.071125 82.071125 0 0 0 -17.677670 17.677670" stroke="black" stroke-width="1" fill="none"/><path d="M 17.677670 17.677670 A 24.772296 24.772296 0 1 0 -0.000000 -25.000000" stroke="black" stroke-width="1" fill="none"/><path d="M 0.000000 25.000000 A 24.772296 24.772296 0 1 1 -17.677670 -17.677670" stroke="black" stroke-width="1" fill="none"/><path d="M -25.000000 0.000000 A 82.071125 82.071125 0 0 0 17.677670 -17.677670" stroke="black" stroke-width="1" fill="none"/><circle cx="25" cy="0" r="4" stroke="black" stroke-width="1" fill="white"/><circle cx="17.67766952966369" cy="17.677669529663685" r="4" stroke="black" stroke-width="1" fill="white"/><circle cx="0.0000000000000015308084989341915" cy="25" r="4" stroke="black" stroke-width="1" fill="white"/><circle cx="-17.677669529663685" cy="17.67766952966369" r="4" stroke="black" stroke-width="1" fill="white"/><circle cx="-25" cy="0.000000000000003061616997868383" r="4" stroke="black" stroke-width="1" fill="white"/><circle cx="-17.677669529663692" cy="-17.677669529663685" r="4" stroke="black" stroke-width="1" fill="white"/><circle cx="-0.000000000000004592425496802574" cy="-25" r="4" stroke="black" stroke-width="1" fill="white"/><circle cx="17.677669529663685" cy="-17.677669529663692" r="4" stroke="black" stroke-width="1" fill="white"/><text x="0" y="70" text-anchor="middle" font-size="16" font-family="sans-serif" fill="black">2×2×2</text></g><g transform="translate(200.000000, 0.000000)"><circle cx="0" cy="0" r="25" stroke="black" stroke-width="1" fill="none"/><path d="M 24.148146 6.470476 A 82.071125 82.071125 0 0 0 -21.650635 12.500000" stroke="black" stroke-width="1" fill="none"/><path d="M 24.148146 6.470476 A 37.046172 37.046172 0 1 1 -25.000000 0.000000" stroke="black" stroke-width="1" fill="none"/><path d="M 21.650635 12.500000 A 37.046172 37.046172 0 1 0 -17.677670 -17.677670" stroke="black" stroke-width="1" fill="none"/><path d="M 21.650635 12.500000 A 24.772296 24.772296 0 1 0 -6.470476 -24.148146" stroke="black" stroke-width="1" fill="none"/><path d="M 12.500000 21.650635 A 37.046172 37.046172 0 1 0 -6.470476 -24.148146" stroke="black" stroke-width="1" fill="none"/><path d="M -6.470476 24.148146 A 260.947870 260.947870 0 0 0 -0.000000 -25.000000" stroke="black" stroke-width="1" fill="none"/><path d="M -17.677670 17.677670 A 82.071125 82.071125 0 0 0 -0.000000 -25.000000" stroke="black" stroke-width="1" fill="none"/><path d="M -17.677670 17.677670 A 260.947870 260.947870 0 0 0 12.500000 -21.650635" stroke="black" stroke-width="1" fill="none"/><path d="M -21.650635 12.500000 A 260.947870 260.947870 0 0 1 24.148146 -6.470476" stroke="black" stroke-width="1" fill="none"/><circle cx="-3.0965200388944005" cy="6.807946733000534" r="2" stroke-width="0" fill="black"/><circle cx="-11.43078502119322" cy="8.771149840547203" r="2" stroke-width="0" fill="black"/><circle cx="-9.247503890652318" cy="8.167547915015788" r="2" stroke-width="0" fill="black"/><circle cx="27.76357075237084" cy="11.500047545536995" r="2" stroke-width="0" fill="black"/><circle cx="26.973761030719444" cy="10.239264417766224" r="2" stroke-width="0" fill="black"/><circle cx="32.614959026439344" cy="25.0263382728149" r="2" stroke-width="0" fill="black"/><circle cx="52.30211432973253" cy="-40.13282385356473" r="2" stroke-width="0" fill="black"/><circle cx="-1.99321824568176" cy="-0.8256180301307978" r="2" stroke-width="0" fill="black"/><circle cx="-2.567633708712748" cy="3.346205397356883" r="2" stroke-width="0" fill="black"/><circle cx="-10.2826755951277" cy="6.818485884496301" r="2" stroke-width="0" fill="black"/><circle cx="-6.787173335430154" cy="5.2079812723667445" r="2" stroke-width="0" fill="black"/><circle cx="25" cy="0" r="4" stroke="black" stroke-width="1" fill="white"/><circle cx="24.148145657226706" cy="6.4704761275630185" r="4" stroke="black" stroke-width="1" fill="white"/><circle cx="21.65063509461097" cy="12.499999999999998" r="4" stroke="black" stroke-width="1" fill="white"/><circle cx="17.67766952966369" cy="17.677669529663685" r="4" stroke="black" stroke-width="1" fill="white"/><circle cx="12.500000000000004" cy="21.650635094610966" r="4" stroke="black" stroke-width="1" fill="white"/><circle cx="6.4704761275630185" cy="24.148145657226706" r="4" stroke="black" stroke-width="1" fill="white"/><circle cx="0.0000000000000015308084989341915" cy="25" r="4" stroke="black" stroke-width="1" fill="white"/><circle cx="-6.470476127563016" cy="24.148145657226706" r="4" stroke="black" stroke-width="1" fill="white"/><circle cx="-12.499999999999996" cy="21.65063509461097" r="4" stroke="black" stroke-width="1" fill="white"/><circle cx="-17.677669529663685" cy="17.67766952966369" r="4" stroke="black" stroke-width="1" fill="white"/><circle cx="-21.65063509461097" cy="12.499999999999998" r="4" stroke="black" stroke-width="1" fill="white"/><circle cx="-24.148145657226706" cy="6.470476127563026" r="4" stroke="black" stroke-width="1" fill="white"/><circle cx="-25" cy="0.000000000000003061616997868383" r="4" stroke="black" stroke-width="1" fill="white"/><circle cx="-24.148145657226706" cy="-6.47047612756302" r="4" stroke="black" stroke-width="1" fill="white"/><circle cx="-21.65063509461097" cy="-12.499999999999995" r="4" stroke="black" stroke-width="1" fill="white"/><circle cx="-17.677669529663696" cy="-17.677669529663678" r="4" stroke="black" stroke-width="1" fill="white"/><circle cx="-12.50000000000001" cy="-21.65063509461096" r="4" stroke="black" stroke-width="1" fill="white"/><circle cx="-6.470476127563016" cy="-24.148145657226706" r="4" stroke="black" stroke-width="1" fill="white"/><circle cx="-0.000000000000004592425496802574" cy="-25" r="4" stroke="black" stroke-width="1" fill="white"/><circle cx="6.470476127563007" cy="-24.14814565722671" r="4" stroke="black" stroke-width="1" fill="white"/><circle cx="12.500000000000004" cy="-21.650635094610966" r="4" stroke="black" stroke-width="1" fill="white"/><circle cx="17.677669529663685" cy="-17.677669529663692" r="4" stroke="black" stroke-width="1" fill="white"/><circle cx="21.65063509461096" cy="-12.50000000000001" r="4" stroke="black" stroke-width="1" fill="white"/><circle cx="24.148145657226703" cy="-6.470476127563039" r="4" stroke="black" stroke-width="1" fill="white"/><text x="0" y="70" text-anchor="middle" font-size="16" font-family="sans-serif" fill="black">Trefoil</text></g><g transform="translate(0.000000, 0.000000)"><circle cx="0" cy="0" r="25" stroke="black" stroke-width="1" fill="none"/><path d="M 25.000000 0.000000 A 93.634113 93.634113 0 0 0 -19.151111 16.069690" stroke="black" stroke-width="1" fill="none"/><path d="M 23.492316 8.550504 A 26.044512 26.044512 0 1 1 -23.492316 8.550504" stroke="black" stroke-width="1" fill="none"/><path d="M 23.492316 8.550504 A 21.197547 21.197547 0 1 0 19.151111 -16.069690" stroke="black" stroke-width="1" fill="none"/><path d="M 12.500000 21.650635 A 20.337167 20.337167 0 1 1 -23.492316 8.550504" stroke="black" stroke-width="1" fill="none"/><path d="M -4.341204 24.620194 A 21.197547 21.197547 0 1 1 -23.492316 8.550504" stroke="black" stroke-width="1" fill="none"/><path d="M -19.151111 16.069690 A 18.167244 18.167244 0 0 0 -23.492316 -8.550504" stroke="black" stroke-width="1" fill="none"/><path d="M -19.151111 16.069690 A 39.462168 39.462168 0 0 0 -12.500000 -21.650635" stroke="black" stroke-width="1" fill="none"/><path d="M -19.151111 16.069690 A 93.634113 93.634113 0 0 0 4.341204 -24.620194" stroke="black" stroke-width="1" fill="none"/><path d="M -23.492316 8.550504 A 26.044512 26.044512 0 1 1 12.500000 -21.650635" stroke="black" stroke-width="1" fill="none"/><path d="M 4.341204 -24.620194 A 18.167244 18.167244 0 0 0 23.492316 -8.550504" stroke="black" stroke-width="1" fill="none"/><circle cx="25" cy="0" r="4" stroke="black" stroke-width="1" fill="white"/><circle cx="23.49231551964771" cy="8.550503583141717" r="4" stroke="black" stroke-width="1" fill="white"/><circle cx="19.151111077974452" cy="16.06969024216348" r="4" stroke="black" stroke-width="1" fill="white"/><circle cx="12.500000000000004" cy="21.650635094610966" r="4" stroke="black" stroke-width="1" fill="white"/><circle cx="4.34120444167326" cy="24.6201938253052" r="4" stroke="black" stroke-width="1" fill="white"/><circle cx="-4.341204441673257" cy="24.6201938253052" r="4" stroke="black" stroke-width="1" fill="white"/><circle cx="-12.499999999999996" cy="21.65063509461097" r="4" stroke="black" stroke-width="1" fill="white"/><circle cx="-19.15111107797445" cy="16.069690242163485" r="4" stroke="black" stroke-width="1" fill="white"/><circle cx="-23.492315519647708" cy="8.550503583141722" r="4" stroke="black" stroke-width="1" fill="white"/><circle cx="-25" cy="0.000000000000003061616997868383" r="4" stroke="black" stroke-width="1" fill="white"/><circle cx="-23.49231551964771" cy="-8.550503583141717" r="4" stroke="black" stroke-width="1" fill="white"/><circle cx="-19.15111107797446" cy="-16.069690242163475" r="4" stroke="black" stroke-width="1" fill="white"/><circle cx="-12.50000000000001" cy="-21.65063509461096" r="4" stroke="black" stroke-width="1" fill="white"/><circle cx="-4.341204441673258" cy="-24.6201938253052" r="4" stroke="black" stroke-width="1" fill="white"/><circle cx="4.341204441673249" cy="-24.620193825305204" r="4" stroke="black" stroke-width="1" fill="white"/><circle cx="12.499999999999984" cy="-21.650635094610976" r="4" stroke="black" stroke-width="1" fill="white"/><circle cx="19.151111077974445" cy="-16.06969024216349" r="4" stroke="black" stroke-width="1" fill="white"/><circle cx="23.49231551964771" cy="-8.550503583141715" r="4" stroke="black" stroke-width="1" fill="white"/><text x="0" y="70" text-anchor="middle" font-size="16" font-family="sans-serif" fill="black">Hopf link</text></g></svg>