<svg xmlns="http://www.w3.org/2000/svg" viewBox="-420 -220 840 440"><rect x="-420" y="-220" width="840" height="440" fill="white"/><g transform="translate(-100.000000, 100.000000)"><circle cx="0" cy="0" r="25" stroke="black" stroke-width="1" fill="none"/><path d="M 25.000000 0.000000 A 82.071125 82.071125 0 0 0 -17.677670 17.677670" stroke="black" stroke-width="1" fill="none"/><path d="M 25.000000 0.000000 A 24.772296 24.772296 0 1 0 -17.677670 -17.677670" stroke="black" stroke-width="1" fill="none"/><path d="M 17.677670 17.677670 A 24.772296 24.772296 0 1 1 -25.000000 0.000000" stroke="black" stroke-width="1" fill="none"/><path d="M 17.677670 17.677670 A 24.772296 24.772296 0 1 0 -0.000000 -25.000000" stroke="black" stroke-width="1" fill="none"/><path d="M 0.000000 25.000000 A 24.772296 24.772296 0 1 1 -17.677670 -17.677670" stroke="black" stroke-width="1" fill="none"/><path d="M 0.000000 25.000000 A 82.071125 82.071125 0 0 1 17.677670 -17.677670" stroke="black" stroke-width="1" fill="none"/><path d="M -17.677670 17.677670 A 82.071125 82.071125 0 0 0 -0.000000 -25.000000" stroke="black" stroke-width="1" fill="none"/><path d="M -25.000000 0.000000 A 82.071125 82.071125 0 0 0 17.677670 -17.677670" stroke="black" stroke-width="1" fill="none"/><circle cx="4.8152166752932" cy="4.815216675293215" r="2" stroke-width="0" fill="black"/><circle cx="28.88455789247282" cy="-28.884557892472827" r="2" stroke-width="0" fill="black"/><circle cx="-28.884557892472813" cy="28.8845578924728" r="2" stroke-width="0" fill="black"/><circle cx="-4.815216675293222" cy="-4.815216675293215" r="2" stroke-width="0" fill="black"/><circle cx="25" cy="0" r="4" stroke="black" stroke-width="1" fill="white"/><circle cx="17.67766952966369" cy="17.677669529663685" r="4" stroke="black" stroke-width="1" fill="white"/><circle cx="0.0000000000000015308084989341915" cy="25" r="4" stroke="black" stroke-width="1" fill="white"/><circle cx="-17.677669529663685" cy="17.67766952966369" r="4" stroke="black" stroke-width="1" fill="white"/><circle cx="-25" cy="0.000000000000003061616997868383" r="4" stroke="black" stroke-width="1" fill="white"/><circle cx="-17.677669529663692" cy="-17.677669529663685" r="4" stroke="black" stroke-width="1" fill="white"/><circle cx="-0.000000000000004592425496802574" cy="-25" r="4" stroke="black" stroke-width="1" fill="white"/><circle cx="17.677669529663685" cy="-17.677669529663692" r="4" stroke="black" stroke-width="1" fill="white"/><text x="0" y="70" text-anchor="middle" font-size="16" font-family="sans-serif" fill="black">K<tspan dy="4" font-size="12">4,4</tspan></text></g><g transform="translate(300.000000, -100.000000)"><circle cx="0" cy="0" r="25" stroke="black" stroke-width="1" fill="none"/><path d="M 25.000000 0.000000 A 58.333333 58.333333 0 0 0 -12.500000 21.650635" stroke="black" stroke-width="1" fill="none"/><path d="M 25.000000 0.000000 A 53.125000 53.125000 0 1 0 -25.000000 0.000000" stroke="black" stroke-width="1" fill="none"/><path d="M 25.000000 0.000000 A 21.666667 21.666667 0 1 0 -12.500000 -21.650635" stroke="black" stroke-width="1" fill="none"/><path d="M 12.500000 21.650635 A 21.666667 21.666667 0 1 1 -25.000000 0.000000" stroke="black" stroke-width="1" fill="none"/><path d="M 12.500000 21.650635 A 53.125000 53.125000 0 1 0 -12.500000 -21.650635" stroke="black" stroke-width="1" fill="none"/><path d="M 12.500000 21.650635 A 58.333333 58.333333 0 0 1 12.500000 -21.650635" stroke="black" stroke-width="1" fill="none"/><path d="M -12.500000 21.650635 A 58.333333 58.333333 0 0 0 -12.500000 -21.650635" stroke="black" stroke-width="1" fill="none"/><path d="M -12.500000 21.650635 L 12.500000 -21.650635" stroke="black" stroke-width="1" fill="none"/><path d="M -25.000000 0.000000 A 58.333333 58.333333 0 0 0 12.500000 -21.650635" stroke="black" stroke-width="1" fill="none"/><circle cx="8.542190120557507" cy="4.931835765572838" r="2" stroke-width="0" fill="black"/><circle cx="44.13519899868581" cy="-76.44440706788697" r="2" stroke-width="0" fill="black"/><circle cx="-8.542190120557507" cy="-4.931835765572835" r="2" stroke-width="0" fill="black"/><circle cx="25" cy="0" r="4" stroke="black" stroke-width="1" fill="white"/><circle cx="12.500000000000004" cy="21.650635094610966" r="4" stroke="black" stroke-width="1" fill="white"/><circle cx="-12.499999999999996" cy="21.65063509461097" r="4" stroke="black" stroke-width="1" fill="white"/><circle cx="-25" cy="0.000000000000003061616997868383" r="4" stroke="black" stroke-width="1" fill="white"/><circle cx="-12.50000000000001" cy="-21.65063509461096" r="4" stroke="black" stroke-width="1" fill="white"/><circle cx="12.500000000000004" cy="-21.650635094610966" r="4" stroke="black" stroke-width="1" fill="white"/><text x="0" y="70" text-anchor="middle" font-size="16" font-family="sans-serif" fill="black">K<tspan dy="4" font-size="12">6</tspan></text></g><g transform="translate(-100.000000, -100.000000)"><circle cx="0" cy="0" r="25" stroke="black" stroke-width="1" fill="none"/><path d="M 25.000000 0.000000 A 53.125000 53.125000 0 1 0 -25.000000 0.000000" stroke="black" stroke-width="1" fill="none"/><path d="M 0.000000 25.000000 L -0.000000 -25.000000" stroke="black" stroke-width="1" fill="none"/><circle cx="25" cy="0" r="4" stroke="black" stroke-width="1" fill="white"/><circle cx="0.0000000000000015308084989341915" cy="25" r="4" stroke="black" stroke-width="1" fill="white"/><circle cx="-25" cy="0.000000000000003061616997868383" r="4" stroke="black" stroke-width="1" fill="white"/><circle cx="-0.000000000000004592425496802574" cy="-25" r="4" stroke="black" stroke-width="1" fill="white"/><text x="0" y="70" text-anchor="middle" font-size="16" font-family="sans-serif" fill="black">K<tspan dy="4" font-size="12">4</tspan></text></g><g transform="translate(-300.000000, 100.000000)"><circle cx="0" cy="0" r="25" stroke="black" stroke-width="1" fill="none"/><path d="M 25.000000 0.000000 A 53.125000 53.125000 0 1 0 -25.000000 0.000000" stroke="black" stroke-width="1" fill="none"/><path d="M 12.500000 21.650635 L -12.500000 -21.650635" stroke="black" stroke-width="1" fill="none"/><path d="M -12.500000 21.650635 L 12.500000 -21.650635" stroke="black" stroke-width="1" fill="none"/><circle cx="-0.000000000000003552713678800501" cy="0.000000000000003552713678800501" r="2" stroke-width="0" fill="black"/><circle cx="25" cy="0" r="4" stroke="black" stroke-width="1" fill="white"/><circle cx="12.500000000000004" cy="21.650635094610966" r="4" stroke="black" stroke-width="1" fill="white"/><circle cx="-12.499999999999996" cy="21.65063509461097" r="4" stroke="black" stroke-width="1" fill="white"/><circle cx="-25" cy="0.000000000000003061616997868383" r="4" stroke="black" stroke-width="1" fill="white"/><circle cx="-12.50000000000001" cy="-21.65063509461096" r="4" stroke="black" stroke-width="1" fill="white"/><circle cx="12.500000000000004" cy="-21.650635094610966" r="4" stroke="black" stroke-width="1" fill="white"/><text x="0" y="70" text-anchor="middle" font-size="16" font-family="sans-serif" fill="black">K<tspan dy="4" font-size="12">3,3</tspan></text></g><g transform="translate(300.000000, 100.000000)"><circle cx="0" cy="0" r="25" stroke="black" stroke-width="1" fill="none"/><path d="M 25.000000 0.000000 A 32.766504 32.766504 0 0 0 0.000000 25.000000" stroke="black" stroke-width="1" fill="none"/><path d="M 25.000000 0.000000 A 127.710318 127.710318 0 0 0 -21.650635 12.500000" stroke="black" stroke-width="1" fill="none"/><path d="M 25.000000 0.000000 A 127.710318 127.710318 0 0 1 -21.650635 -12.500000" stroke="black" stroke-width="1" fill="none"/><path d="M 25.000000 0.000000 A 20.266504 20.266504 0 1 0 -0.000000 -25.000000" stroke="black" stroke-width="1" fill="none"/><path d="M 21.650635 12.500000 A 32.766504 32.766504 0 0 0 -12.500000 21.650635" stroke="black" stroke-width="1" fill="none"/><path d="M 21.650635 12.500000 A 127.710318 127.710318 0 0 0 -25.000000 0.000000" stroke="black" stroke-width="1" fill="none"/><path d="M 21.650635 12.500000 A 29.281272 29.281272 0 1 0 -12.500000 -21.650635" stroke="black" stroke-width="1" fill="none"/><path d="M 21.650635 12.500000 A 20.266504 20.266504 0 1 0 12.500000 -21.650635" stroke="black" stroke-width="1" fill="none"/><path d="M 12.500000 21.650635 A 32.766504 32.766504 0 0 0 -21.650635 12.500000" stroke="black" stroke-width="1" fill="none"/><path d="M 12.500000 21.650635 A 29.281272 29.281272 0 1 1 -21.650635 -12.500000" stroke="black" stroke-width="1" fill="none"/><path d="M 12.500000 21.650635 A 29.281272 29.281272 0 1 0 -0.000000 -25.000000" stroke="black" stroke-width="1" fill="none"/><path d="M 12.500000 21.650635 A 20.266504 20.266504 0 1 0 21.650635 -12.500000" stroke="black" stroke-width="1" fill="none"/><path d="M 0.000000 25.000000 A 20.266504 20.266504 0 1 1 -25.000000 0.000000" stroke="black" stroke-width="1" fill="none"/><path d="M 0.000000 25.000000 A 29.281272 29.281272 0 1 1 -12.500000 -21.650635" stroke="black" stroke-width="1" fill="none"/><path d="M 0.000000 25.000000 A 29.281272 29.281272 0 1 0 12.500000 -21.650635" stroke="black" stroke-width="1" fill="none"/><path d="M -12.500000 21.650635 A 20.266504 20.266504 0 1 1 -21.650635 -12.500000" stroke="black" stroke-width="1" fill="none"/><path d="M -12.500000 21.650635 A 29.281272 29.281272 0 1 1 -0.000000 -25.000000" stroke="black" stroke-width="1" fill="none"/><path d="M -12.500000 21.650635 A 127.710318 127.710318 0 0 1 21.650635 -12.500000" stroke="black" stroke-width="1" fill="none"/><path d="M -21.650635 12.500000 A 20.266504 20.266504 0 1 1 -12.500000 -21.650635" stroke="black" stroke-width="1" fill="none"/><path d="M -21.650635 12.500000 A 127.710318 127.710318 0 0 0 12.500000 -21.650635" stroke="black" stroke-width="1" fill="none"/><path d="M -25.000000 0.000000 A 32.766504 32.766504 0 0 0 -0.000000 -25.000000" stroke="black" stroke-width="1" fill="none"/><path d="M -25.000000 0.000000 A 127.710318 127.710318 0 0 0 21.650635 -12.500000" stroke="black" stroke-width="1" fill="none"/><path d="M -21.650635 -12.500000 A 32.766504 32.766504 0 0 0 12.500000 -21.650635" stroke="black" stroke-width="1" fill="none"/><path d="M -12.500000 -21.650635 A 32.766504 32.766504 0 0 0 21.650635 -12.500000" stroke="black" stroke-width="1" fill="none"/><circle cx="6.561854457649147" cy="11.365465312520637" r="2" stroke-width="0" fill="black"/><circle cx="10.151537083001916" cy="7.596619463595442" r="2" stroke-width="0" fill="black"/><circle cx="4.013892561913312" cy="14.980050977183243" r="2" stroke-width="0" fill="black"/><circle cx="-0.00000000000000840880361011976" cy="4.318714942951644" r="2" stroke-width="0" fill="black"/><circle cx="2.1593574714758077" cy="3.740116852299579" r="2" stroke-width="0" fill="black"/><circle cx="8.48777670581407" cy="-2.27429291385857" r="2" stroke-width="0" fill="black"/><circle cx="-1.2520901913745668" cy="-4.672864209868479" r="2" stroke-width="0" fill="black"/><circle cx="-10.151537083001909" cy="-7.596619463595413" r="2" stroke-width="0" fill="black"/><circle cx="0.000000000000028295425367898852" cy="-4.31871494295163" r="2" stroke-width="0" fill="black"/><circle cx="39.50434863216525" cy="-22.807846316941465" r="2" stroke-width="0" fill="black"/><circle cx="37.419995849729254" cy="-10.026657668710913" r="2" stroke-width="0" fill="black"/><circle cx="39.68127864255131" cy="-17.56397893121381" r="2" stroke-width="0" fill="black"/><circle cx="0.000000000000010844556320395467" cy="13.123708915298277" r="2" stroke-width="0" fill="black"/><circle cx="1.2520901913745597" cy="4.672864209868507" r="2" stroke-width="0" fill="black"/><circle cx="-8.48777670581407" cy="2.2742929138585737" r="2" stroke-width="0" fill="black"/><circle cx="44.09334135759068" cy="-25.457302502274977" r="2" stroke-width="0" fill="black"/><circle cx="43.14698482470523" cy="-4.629787375309814" r="2" stroke-width="0" fill="black"/><circle cx="45.27049166478601" cy="-12.130191682539255" r="2" stroke-width="0" fill="black"/><circle cx="-8.528880368886501" cy="-31.83021486836116" r="2" stroke-width="0" fill="black"/><circle cx="45.615692633882865" cy="0.00000000000006195023383400925" r="2" stroke-width="0" fill="black"/><circle cx="-4.9931792695417325" cy="11.654633979857909" r="2" stroke-width="0" fill="black"/><circle cx="-44.09334135759064" cy="25.457302502274963" r="2" stroke-width="0" fill="black"/><circle cx="8.528880368886487" cy="31.830214868361146" r="2" stroke-width="0" fill="black"/><circle cx="-45.27049166478598" cy="12.130191682539293" r="2" stroke-width="0" fill="black"/><circle cx="-43.146984824705214" cy="4.629787375309865" r="2" stroke-width="0" fill="black"/><circle cx="50.914605004550026" cy="-0.000000000000009092575968847617" r="2" stroke-width="0" fill="black"/><circle cx="-39.50434863216525" cy="22.80784631694145" r="2" stroke-width="0" fill="black"/><circle cx="-39.68127864255131" cy="17.56397893121381" r="2" stroke-width="0" fill="black"/><circle cx="-37.419995849729254" cy="10.026657668710925" r="2" stroke-width="0" fill="black"/><circle cx="-50.914605004550005" cy="0.00000000000008767386044615141" r="2" stroke-width="0" fill="black"/><circle cx="-45.61569263388287" cy="0.000000000000005606608696017493" r="2" stroke-width="0" fill="black"/><circle cx="-2.1593574714758503" cy="-3.7401168522995647" r="2" stroke-width="0" fill="black"/><circle cx="4.993179269541738" cy="-11.654633979857955" r="2" stroke-width="0" fill="black"/><circle cx="-6.561854457649133" cy="-11.365465312520637" r="2" stroke-width="0" fill="black"/><circle cx="-4.013892561913304" cy="-14.980050977183243" r="2" stroke-width="0" fill="black"/><circle cx="-0.000000000000008111468240161853" cy="-13.123708915298277" r="2" stroke-width="0" fill="black"/><circle cx="25" cy="0" r="4" stroke="black" stroke-width="1" fill="white"/><circle cx="21.65063509461097" cy="12.499999999999998" r="4" stroke="black" stroke-width="1" fill="white"/><circle cx="12.500000000000004" cy="21.650635094610966" r="4" stroke="black" stroke-width="1" fill="white"/><circle cx="0.0000000000000015308084989341915" cy="25" r="4" stroke="black" stroke-width="1" fill="white"/><circle cx="-12.499999999999996" cy="21.65063509461097" r="4" stroke="black" stroke-width="1" fill="white"/><circle cx="-21.65063509461097" cy="12.499999999999998" r="4" stroke="black" stroke-width="1" fill="white"/><circle cx="-25" cy="0.000000000000003061616997868383" r="4" stroke="black" stroke-width="1" fill="white"/><circle cx="-21.65063509461097" cy="-12.499999999999995" r="4" stroke="black" stroke-width="1" fill="white"/><circle cx="-12.50000000000001" cy="-21.65063509461096" r="4" stroke="black" stroke-width="1" fill="white"/><circle cx="-0.000000000000004592425496802574" cy="-25" r="4" stroke="black" stroke-width="1" fill="white"/><circle cx="12.500000000000004" cy="-21.650635094610966" r="4" stroke="black" stroke-width="1" fill="white"/><circle cx="21.65063509461096" cy="-12.50000000000001" r="4" stroke="black" stroke-width="1" fill="white"/><text x="0" y="70" text-anchor="middle" font-size="16" font-family="sans-serif" fill="black">K<tspan dy="4" font-size="12">6,6</tspan></text></g><g transform="translate(100.000000, -100.000000)"><circle cx="0" cy="0" r="25" stroke="black" stroke-width="1" fill="none"/><path d="M 25.000000 0.000000 A 27.213137 27.213137 0 1 1 -20.225425 14.694631" stroke="black" stroke-width="1" fill="none"/><path d="M 25.000000 0.000000 A 27.213137 27.213137 0 1 0 -20.225425 -14.694631" stroke="black" stroke-width="1" fill="none"/><path d="M 7.725425 23.776413 A 105.074581 105.074581 0 0 0 -20.225425 -14.694631" stroke="black" stroke-width="1" fill="none"/><path d="M 7.725425 23.776413 A 105.074581 105.074581 0 0 1 7.725425 -23.776413" stroke="black" stroke-width="1" fill="none"/><path d="M -20.225425 14.694631 A 105.074581 105.074581 0 0 0 7.725425 -23.776413" stroke="black" stroke-width="1" fill="none"/><circle cx="-6.259998685678283" cy="0.00000000000001703981001239097" r="2" stroke-width="0" fill="black"/><circle cx="25" cy="0" r="4" stroke="black" stroke-width="1" fill="white"/><circle cx="7.725424859373686" cy="23.776412907378838" r="4" stroke="black" stroke-width="1" fill="white"/><circle cx="-20.225424859373682" cy="14.69463130731183" r="4" stroke="black" stroke-width="1" fill="white"/><circle cx="-20.225424859373685" cy="-14.694631307311825" r="4" stroke="black" stroke-width="1" fill="white"/><circle cx="7.725424859373681" cy="-23.77641290737884" r="4" stroke="black" stroke-width="1" fill="white"/><text x="0" y="70" text-anchor="middle" font-size="16" font-family="sans-serif" fill="black">K<tspan dy="4" font-size="12">5</tspan></text></g><g transform="translate(100.000000, 100.000000)"><circle cx="0" cy="0" r="25" stroke="black" stroke-width="1" fill="none"/><path d="M 25.000000 0.000000 A 45.914934 45.914934 0 0 0 -7.725425 23.776413" stroke="black" stroke-width="1" fill="none"/><path d="M 25.000000 0.000000 A 53.125000 53.125000 0 1 0 -25.000000 0.000000" stroke="black" stroke-width="1" fill="none"/><path d="M 25.000000 0.000000 A 20.629841 20.629841 0 1 0 -7.725425 -23.776413" stroke="black" stroke-width="1" fill="none"/><path d="M 20.225425 14.694631 A 20.629841 20.629841 0 1 1 -20.225425 14.694631" stroke="black" stroke-width="1" fill="none"/><path d="M 20.225425 14.694631 A 53.125000 53.125000 0 1 0 -20.225425 -14.694631" stroke="black" stroke-width="1" fill="none"/><path d="M 20.225425 14.694631 A 20.629841 20.629841 0 1 0 7.725425 -23.776413" stroke="black" stroke-width="1" fill="none"/><path d="M 7.725425 23.776413 A 20.629841 20.629841 0 1 1 -25.000000 0.000000" stroke="black" stroke-width="1" fill="none"/><path d="M 7.725425 23.776413 A 53.125000 53.125000 0 1 0 -7.725425 -23.776413" stroke="black" stroke-width="1" fill="none"/><path d="M 7.725425 23.776413 A 45.914934 45.914934 0 0 1 20.225425 -14.694631" stroke="black" stroke-width="1" fill="none"/><path d="M -7.725425 23.776413 A 45.914934 45.914934 0 0 0 -20.225425 -14.694631" stroke="black" stroke-width="1" fill="none"/><path d="M -7.725425 23.776413 L 7.725425 -23.776413" stroke="black" stroke-width="1" fill="none"/><path d="M -20.225425 14.694631 A 45.914934 45.914934 0 0 0 -7.725425 -23.776413" stroke="black" stroke-width="1" fill="none"/><path d="M -20.225425 14.694631 L 20.225425 -14.694631" stroke="black" stroke-width="1" fill="none"/><path d="M -25.000000 0.000000 A 45.914934 45.914934 0 0 0 7.725425 -23.776413" stroke="black" stroke-width="1" fill="none"/><path d="M -20.225425 -14.694631 A 45.914934 45.914934 0 0 0 20.225425 -14.694631" stroke="black" stroke-width="1" fill="none"/><circle cx="8.606750824088742" cy="6.253170501645691" r="2" stroke-width="0" fill="black"/><circle cx="29.57072032405148" cy="-91.00931912374689" r="2" stroke-width="0" fill="black"/><circle cx="38.07389382266919" cy="-9.825786321702953" r="2" stroke-width="0" fill="black"/><circle cx="48.98858079154197" cy="-67.42699691101978" r="2" stroke-width="0" fill="black"/><circle cx="30.45131094403089" cy="-22.124172434353525" r="2" stroke-width="0" fill="black"/><circle cx="-11.63136577862814" cy="35.79766297174752" r="2" stroke-width="0" fill="black"/><circle cx="16.76776754679402" cy="30.777420955102095" r="2" stroke-width="0" fill="black"/><circle cx="77.41715088018404" cy="-56.24685251146137" r="2" stroke-width="0" fill="black"/><circle cx="-10.638529083976053" cy="-0.000000000000027611271776981026" r="2" stroke-width="0" fill="black"/><circle cx="-8.606750824088756" cy="6.253170501645668" r="2" stroke-width="0" fill="black"/><circle cx="-12.528793687420777" cy="-4.0708518390815165" r="2" stroke-width="0" fill="black"/><circle cx="-0.0000000000000026645352591003757" cy="0.000000000000003552713678800501" r="2" stroke-width="0" fill="black"/><circle cx="3.287486282100738" cy="-10.117842409110935" r="2" stroke-width="0" fill="black"/><circle cx="-8.606750824088785" cy="-6.253170501645666" r="2" stroke-width="0" fill="black"/><circle cx="-7.743220336861185" cy="-10.657628477880436" r="2" stroke-width="0" fill="black"/><circle cx="-3.2874862821007564" cy="-10.117842409110935" r="2" stroke-width="0" fill="black"/><circle cx="25" cy="0" r="4" stroke="black" stroke-width="1" fill="white"/><circle cx="20.225424859373685" cy="14.694631307311829" r="4" stroke="black" stroke-width="1" fill="white"/><circle cx="7.725424859373686" cy="23.776412907378838" r="4" stroke="black" stroke-width="1" fill="white"/><circle cx="-7.725424859373684" cy="23.77641290737884" r="4" stroke="black" stroke-width="1" fill="white"/><circle cx="-20.225424859373682" cy="14.69463130731183" r="4" stroke="black" stroke-width="1" fill="white"/><circle cx="-25" cy="0.000000000000003061616997868383" r="4" stroke="black" stroke-width="1" fill="white"/><circle cx="-20.225424859373685" cy="-14.694631307311825" r="4" stroke="black" stroke-width="1" fill="white"/><circle cx="-7.725424859373689" cy="-23.776412907378838" r="4" stroke="black" stroke-width="1" fill="white"/><circle cx="7.725424859373681" cy="-23.77641290737884" r="4" stroke="black" stroke-width="1" fill="white"/><circle cx="20.225424859373682" cy="-14.694631307311834" r="4" stroke="black" stroke-width="1" fill="white"/><text x="0" y="70" text-anchor="middle" font-size="16" font-family="sans-serif" fill="black">K<tspan dy="4" font-size="12">5,5</tspan></text></g><g transform="translate(-300.000000, -100.000000)"><circle cx="0" cy="0" r="25" stroke="black" stroke-width="1" fill="none"/><circle cx="25" cy="0" r="4" stroke="black" stroke-width="1" fill="white"/><circle cx="-12.499999999999996" cy="21.65063509461097" r="4" stroke="black" stroke-width="1" fill="white"/><circle cx="-12.50000000000001" cy="-21.65063509461096" r="4" stroke="black" stroke-width="1" fill="white"/><text x="0" y="70" text-anchor="middle" font-size="16" font-family="sans-serif" fill="black">K<tspan dy="4" font-size="12">3</tspan></text></g></svg>