<svg xmlns="http://www.w3.org/2000/svg" viewBox="-320 -120 640 240"><rect x="-320" y="-120" width="640" height="240" fill="white"/><g transform="translate(-200.000000, 0.000000)"><circle cx="0" cy="0" r="25" stroke="black" stroke-width="1" fill="none"/><path d="M 25.000000 0.000000 A 53.125000 53.125000 0 1 0 -25.000000 0.000000" stroke="black" stroke-width="1" fill="none"/><path d="M 12.500000 21.650635 L -12.500000 -21.650635" stroke="black" stroke-width="1" fill="none"/><path d="M -12.500000 21.650635 L 12.500000 -21.650635" stroke="black" stroke-width="1" fill="none"/><circle cx="-0.000000000000003552713678800501" cy="0.000000000000003552713678800501" r="2" stroke-width="0" fill="black"/><circle cx="25" cy="0" r="4" stroke="black" stroke-width="1" fill="white"/><circle cx="12.500000000000004" cy="21.650635094610966" r="4" stroke="black" stroke-width="1" fill="white"/><circle cx="-12.499999999999996" cy="21.65063509461097" r="4" stroke="black" stroke-width="1" fill="white"/><circle cx="-25" cy="0.000000000000003061616997868383" r="4" stroke="black" stroke-width="1" fill="white"/><circle cx="-12.50000000000001" cy="-21.65063509461096" r="4" stroke="black" stroke-width="1" fill="white"/><circle cx="12.500000000000004" cy="-21.650635094610966" r="4" stroke="black" stroke-width="1" fill="white"/><text x="0" y="70" text-anchor="middle" font-size="16" font-family="sans-serif" fill="black">Trefoil (2,3)</text></g><g transform="translate(200.000000, 0.000000)"><circle cx="0" cy="0" r="25" stroke="black" stroke-width="1" fill="none"/><path d="M 25.000000 0.000000 A 53.125000 53.125000 0 1 0 -25.000000 0.000000" stroke="black" stroke-width="1" fill="none"/><path d="M 22.524222 10.847093 A 53.125000 53.125000 0 1 0 -22.524222 -10.847093" stroke="black" stroke-width="1" fill="none"/><path d="M 15.587245 19.545787 A 53.125000 53.125000 0 1 0 -15.587245 -19.545787" stroke="black" stroke-width="1" fill="none"/><path d="M 5.563023 24.373198 L -5.563023 -24.373198" stroke="black" stroke-width="1" fill="none"/><path d="M -5.563023 24.373198 L 5.563023 -24.373198" stroke="black" stroke-width="1" fill="none"/><path d="M -15.587245 19.545787 L 15.587245 -19.545787" stroke="black" stroke-width="1" fill="none"/><path d="M -22.524222 10.847093 L 22.524222 -10.847093" stroke="black" stroke-width="1" fill="none"/><circle cx="21.76047634356538" cy="-95.33887617907934" r="2" stroke-width="0" fill="black"/><circle cx="39.61818485475776" cy="-82.26800854426259" r="2" stroke-width="0" fill="black"/><circle cx="60.9714998161243" cy="-76.4558424972287" r="2" stroke-width="0" fill="black"/><circle cx="-0.000000000000007993605777301127" cy="-0.00000000000002842170943040401" r="2" stroke-width="0" fill="black"/><circle cx="-0.0000000000000017763568394002505" cy="0" r="2" stroke-width="0" fill="black"/><circle cx="0" cy="0.000000000000007105427357601002" r="2" stroke-width="0" fill="black"/><circle cx="-0.000000000000017763568394002505" cy="0.000000000000021316282072803006" r="2" stroke-width="0" fill="black"/><circle cx="-0.000000000000017763568394002505" cy="0.000000000000017763568394002505" r="2" stroke-width="0" fill="black"/><circle cx="-0.000000000000015987211554602254" cy="0.000000000000017763568394002505" r="2" stroke-width="0" fill="black"/><circle cx="25" cy="0" r="4" stroke="black" stroke-width="1" fill="white"/><circle cx="22.524221697560478" cy="10.847093477938953" r="4" stroke="black" stroke-width="1" fill="white"/><circle cx="15.58724504646834" cy="19.545787061700747" r="4" stroke="black" stroke-width="1" fill="white"/><circle cx="5.563023348907861" cy="24.37319780454559" r="4" stroke="black" stroke-width="1" fill="white"/><circle cx="-5.563023348907858" cy="24.37319780454559" r="4" stroke="black" stroke-width="1" fill="white"/><circle cx="-15.587245046468338" cy="19.545787061700747" r="4" stroke="black" stroke-width="1" fill="white"/><circle cx="-22.524221697560478" cy="10.847093477938955" r="4" stroke="black" stroke-width="1" fill="white"/><circle cx="-25" cy="0.000000000000003061616997868383" r="4" stroke="black" stroke-width="1" fill="white"/><circle cx="-22.524221697560478" cy="-10.84709347793895" r="4" stroke="black" stroke-width="1" fill="white"/><circle cx="-15.58724504646834" cy="-19.545787061700743" r="4" stroke="black" stroke-width="1" fill="white"/><circle cx="-5.563023348907865" cy="-24.37319780454559" r="4" stroke="black" stroke-width="1" fill="white"/><circle cx="5.563023348907834" cy="-24.373197804545597" r="4" stroke="black" stroke-width="1" fill="white"/><circle cx="15.587245046468334" cy="-19.545787061700747" r="4" stroke="black" stroke-width="1" fill="white"/><circle cx="22.524221697560485" cy="-10.847093477938937" r="4" stroke="black" stroke-width="1" fill="white"/><text x="0" y="70" text-anchor="middle" font-size="16" font-family="sans-serif" fill="black">Trefoil (2,7)</text></g><g transform="translate(0.000000, 0.000000)"><circle cx="0" cy="0" r="25" stroke="black" stroke-width="1" fill="none"/><path d="M 25.000000 0.000000 A 53.125000 53.125000 0 1 0 -25.000000 0.000000" stroke="black" stroke-width="1" fill="none"/><path d="M 20.225425 14.694631 A 53.125000 53.125000 0 1 0 -20.225425 -14.694631" stroke="black" stroke-width="1" fill="none"/><path d="M 7.725425 23.776413 L -7.725425 -23.776413" stroke="black" stroke-width="1" fill="none"/><path d="M -7.725425 23.776413 L 7.725425 -23.776413" stroke="black" stroke-width="1" fill="none"/><path d="M -20.225425 14.694631 L 20.225425 -14.694631" stroke="black" stroke-width="1" fill="none"/><circle cx="29.57072032405148" cy="-91.00931912374689" r="2" stroke-width="0" fill="black"/><circle cx="-0.0000000000000026645352591003757" cy="-0.000000000000003552713678800501" r="2" stroke-width="0" fill="black"/><circle cx="-0.0000000000000008881784197001252" cy="0" r="2" stroke-width="0" fill="black"/><circle cx="-0.0000000000000026645352591003757" cy="0.000000000000003552713678800501" r="2" stroke-width="0" fill="black"/><circle cx="25" cy="0" r="4" stroke="black" stroke-width="1" fill="white"/><circle cx="20.225424859373685" cy="14.694631307311829" r="4" stroke="black" stroke-width="1" fill="white"/><circle cx="7.725424859373686" cy="23.776412907378838" r="4" stroke="black" stroke-width="1" fill="white"/><circle cx="-7.725424859373684" cy="23.77641290737884" r="4" stroke="black" stroke-width="1" fill="white"/><circle cx="-20.225424859373682" cy="14.69463130731183" r="4" stroke="black" stroke-width="1" fill="white"/><circle cx="-25" cy="0.000000000000003061616997868383" r="4" stroke="black" stroke-width="1" fill="white"/><circle cx="-20.225424859373685" cy="-14.694631307311825" r="4" stroke="black" stroke-width="1" fill="white"/><circle cx="-7.725424859373689" cy="-23.776412907378838" r="4" stroke="black" stroke-width="1" fill="white"/><circle cx="7.725424859373681" cy="-23.77641290737884" r="4" stroke="black" stroke-width="1" fill="white"/><circle cx="20.225424859373682" cy="-14.694631307311834" r="4" stroke="black" stroke-width="1" fill="white"/><text x="0" y="70" text-anchor="middle" font-size="16" font-family="sans-serif" fill="black">Trefoil (2,5)</text></g></svg>